IKResults
version=1
nRows=8
nColumns=40
inDegrees=yes

Units are S.I. units (second, meters, Newtons, ...)
Angles are in degrees.

endheader
time	pelvis_tilt	pelvis_list	pelvis_rotation	pelvis_tx	pelvis_ty	pelvis_tz	hip_flexion_r	hip_adduction_r	hip_rotation_r	knee_angle_r	knee_angle_r_beta	ankle_angle_r	subtalar_angle_r	mtp_angle_r	hip_flexion_l	hip_adduction_l	hip_rotation_l	knee_angle_l	knee_angle_l_beta	ankle_angle_l	subtalar_angle_l	mtp_angle_l	lumbar_extension	lumbar_bending	lumbar_rotation	arm_flex_r	arm_add_r	arm_rot_r	elbow_flex_r	pro_sup_r	wrist_flex_r	wrist_dev_r	arm_flex_l	arm_add_l	arm_rot_l	elbow_flex_l	pro_sup_l	wrist_flex_l	wrist_dev_l
      0.70000000	     19.15472524	      3.81794977	     -3.21153339	     -0.46284596	      0.94530663	     -1.01860236	    -18.28051196	     -6.22372661	     -5.42399546	    -50.95993687	     -0.88941869	     -8.57827688	    -17.71372064	     17.15579579	     -7.61670480	     -4.80620571	     13.65760921	    -15.28981971	     -0.26685770	      1.81531164	     -1.40379071	     -6.72582325	    -25.38471252	     -6.35160490	      2.21554801	      6.02427831	    -12.59365903	      1.58474535	     29.83808381	     89.95437384	      0.00000000	      0.00000000	     -4.00832191	      7.25757559	     18.82678457	     12.69810788	     89.95437384	      0.00000000	      0.00000000
      0.71000000	     19.34119953	      3.63023782	     -3.28519560	     -0.45438628	      0.94615201	     -1.02001159	    -17.02871519	     -6.35846006	     -5.79492451	    -53.21926804	     -0.92885145	     -9.56264465	    -18.03824117	     17.64043602	     -8.50089297	     -4.74683167	     13.74883697	    -15.16846563	     -0.26473967	      2.25206043	     -1.73160320	     -6.69122991	    -25.57415462	     -6.15567982	      2.09147594	      5.78048635	    -12.49543423	      1.96551626	     29.27953867	     89.95437384	      0.00000000	      0.00000000	     -3.41669807	      7.20879107	     18.14481619	     13.37138992	     89.95437384	      0.00000000	      0.00000000
      0.72000000	     19.75999051	      3.36186953	     -3.16604500	     -0.44588634	      0.94738991	     -1.02147581	    -16.28902827	     -6.31804768	     -6.30214525	    -54.91983047	     -0.95853187	     -9.71675547	    -18.24561639	     17.62040166	     -9.49307035	     -4.55737324	     13.85129688	    -15.30523271	     -0.26712670	      2.45867404	     -1.73342875	     -6.63162335	    -26.02672928	     -5.81132414	      1.79245776	      5.47293840	    -12.33678160	      2.09379777	     28.93559881	     89.95437384	      0.00000000	      0.00000000	     -2.69601482	      7.16014015	     17.81790279	     13.90128187	     89.95437384	      0.00000000	      0.00000000
      0.73000000	     20.08363138	      3.14328437	     -3.09639909	     -0.43762013	      0.94838123	     -1.02273967	    -15.42863810	     -6.34125865	     -6.77381175	    -56.38345013	     -0.98407685	     -9.56609753	    -18.53376915	     17.60999199	    -10.43850462	     -4.43413227	     13.89731750	    -15.32937533	     -0.26754807	      2.75689997	     -1.82654029	     -6.59241884	    -26.38922019	     -5.55464868	      1.52057745	      5.19099631	    -12.16088938	      2.27807516	     28.55190073	     89.95437384	      0.00000000	      0.00000000	     -1.93129061	      7.16722922	     17.40905666	     14.41284849	     89.95437384	      0.00000000	      0.00000000
      0.74000000	     19.97209709	      3.46000863	     -3.21840350	     -0.42961444	      0.94849192	     -1.02402209	    -13.88943248	     -7.04248356	     -7.17869236	    -58.05075291	     -1.01317677	     -7.92789414	    -18.58555222	     20.73991493	    -11.04657603	     -5.06052548	     13.29266294	    -14.90986802	     -0.26022629	      3.37156433	     -1.37924481	     -6.35919043	    -26.23111989	     -5.89360886	      1.35078465	      4.81393950	    -12.09211417	      2.89383871	     28.08924945	     89.95437384	      0.00000000	      0.00000000	     -1.78248321	      7.68019162	     13.15025089	     16.09515932	     89.95437384	      0.00000000	      0.00000000
      0.75000000	     20.20042491	      3.18758566	     -3.03576323	     -0.42162715	      0.94932739	     -1.02526700	    -13.03301753	     -6.89067991	     -7.59799838	    -58.88696001	     -1.02777134	     -7.19044641	    -18.71527947	     20.54492596	    -11.89543463	     -4.82250377	     13.37123954	    -14.88314833	     -0.25975994	      3.63769633	     -1.45556102	     -6.31103248	    -26.52368295	     -5.53794987	      0.98092029	      4.49460103	    -11.90716516	      2.96461284	     27.80142094	     89.95437384	      0.00000000	      0.00000000	     -0.90506141	      7.67884999	     12.93287020	     16.58257960	     89.95437384	      0.00000000	      0.00000000
      0.76000000	     20.36210414	      2.96171998	     -2.87007083	     -0.41361559	      0.95009740	     -1.02640371	    -12.19362451	     -6.71505429	     -7.87665035	    -59.39405070	     -1.03662174	     -5.95349820	    -18.63360501	     20.42322128	    -12.70283709	     -4.67651203	     13.13396162	    -14.75560173	     -0.25753383	      4.12105751	     -1.72035757	     -6.29757970	    -26.70749853	     -5.24119976	      0.67292806	      4.16571412	    -11.71338552	      3.08459644	     27.35644428	     89.95437384	      0.00000000	      0.00000000	      0.01412692	      7.77614203	     12.44350702	     17.04202419	     89.95437384	      0.00000000	      0.00000000
      0.77000000	     20.61786266	      2.70335991	     -2.49296785	     -0.40552219	      0.95100032	     -1.02743593	    -11.59592790	     -6.35737329	     -8.27040163	    -59.53865512	     -1.03914556	     -3.95207486	    -18.41661795	     21.39245546	    -13.74684860	     -4.42773269	     12.73428199	    -14.41721997	     -0.25162796	      4.48676478	     -1.99575952	     -6.19319235	    -26.96746527	     -4.86631299	      0.26167468	      3.70972307	    -11.48173075	      3.08746985	     27.08201935	     89.95437384	      0.00000000	      0.00000000	      0.46396484	      8.34220321	      8.97909113	     18.25071001	     89.95437384	      0.00000000	      0.00000000
